<?xml version="1.0" standalone="no"?>
<!DOCTYPE svg PUBLIC "-//W3C//DTD SVG 20010904//EN"
 "http://www.w3.org/TR/2001/REC-SVG-20010904/DTD/svg10.dtd">
<svg version="1.0" xmlns="http://www.w3.org/2000/svg"
 width="3028.000000pt" height="3028.000000pt" viewBox="0 0 3028.000000 3028.000000"
 preserveAspectRatio="xMidYMid meet">
<metadata>
Created by potrace 1.11, written by Peter Selinger 2001-2013
</metadata>
<g transform="translate(0.000000,3028.000000) scale(0.100000,-0.100000)"
fill="#000000" stroke="none">
<path d="M7717 30274 c-1 -1 -22 -5 -47 -9 -110 -16 -236 -92 -332 -197 -400
-444 -823 -1101 -1088 -1693 -111 -245 -245 -631 -307 -880 -8 -33 -16 -67
-18 -75 -40 -158 -83 -409 -100 -575 -4 -33 -8 -71 -10 -85 -21 -143 -21 -634
0 -795 12 -91 17 -133 19 -160 2 -16 6 -43 9 -60 3 -16 9 -48 12 -70 8 -59 53
-266 81 -371 109 -414 320 -875 577 -1259 72 -108 182 -262 197 -275 3 -3 19
-23 35 -46 86 -119 246 -296 454 -504 215 -214 221 -219 401 -370 69 -58 127
-107 130 -110 3 -3 23 -19 45 -36 22 -17 78 -60 125 -96 392 -300 897 -615
1435 -893 94 -48 244 -129 335 -180 91 -51 197 -109 235 -130 39 -21 103 -58
143 -82 41 -24 75 -43 77 -43 1 0 47 -25 101 -56 55 -31 119 -68 144 -82 25
-14 118 -67 208 -119 90 -51 165 -93 168 -93 2 0 23 -12 47 -27 23 -14 146
-86 272 -158 127 -73 308 -178 404 -234 96 -55 176 -101 178 -101 3 0 17 -8
31 -19 70 -48 153 -85 218 -97 15 -3 31 -7 35 -9 10 -7 149 -7 179 -1 14 3 39
9 55 12 95 20 225 104 298 191 46 56 101 170 115 238 11 49 10 211 -1 250 -40
152 -137 282 -265 358 -123 73 -592 346 -672 391 -31 17 -169 96 -308 176
-260 149 -285 163 -387 220 -33 18 -77 44 -97 57 -21 13 -40 23 -43 23 -2 0
-26 13 -52 29 -77 47 -719 403 -823 456 -52 27 -124 64 -160 82 -36 19 -72 38
-80 43 -8 5 -73 42 -145 81 -142 79 -356 206 -422 251 -23 15 -44 28 -48 28
-3 0 -11 5 -18 10 -7 6 -73 51 -147 101 -207 139 -517 375 -648 492 -518 466
-876 928 -1076 1390 -9 20 -22 52 -30 70 -53 124 -137 390 -161 512 -7 36 -31
177 -38 225 -29 191 -30 582 -3 780 2 14 7 48 10 75 4 28 11 73 16 100 5 28
12 65 15 82 9 53 34 160 67 278 108 395 285 800 530 1210 32 55 67 111 77 124
l18 23 23 -38 c13 -22 29 -48 35 -59 134 -238 480 -735 689 -990 23 -27 48
-59 57 -70 250 -308 574 -644 944 -978 64 -58 327 -276 426 -354 1010 -786
2200 -1343 3444 -1612 77 -17 156 -33 175 -36 19 -3 42 -8 50 -10 8 -2 31 -7
50 -10 19 -3 58 -10 85 -15 28 -6 68 -12 90 -15 22 -3 50 -7 62 -9 11 -3 43
-7 70 -11 26 -4 59 -8 73 -10 110 -16 344 -42 450 -50 41 -3 98 -8 125 -10
295 -24 877 -24 1215 0 100 7 205 16 240 20 19 2 62 7 95 10 51 5 144 17 325
41 19 3 46 7 60 9 14 3 43 8 65 11 214 31 665 131 950 210 107 30 372 111 400
123 11 5 81 30 155 56 124 43 271 99 345 130 17 7 55 23 85 35 134 55 354 156
535 247 189 95 241 123 430 231 208 120 548 337 665 424 14 11 99 74 190 140
91 67 167 124 170 127 3 3 39 33 80 66 41 32 77 62 80 65 3 3 34 29 70 59 36
29 92 77 125 106 33 30 71 63 85 75 14 12 81 75 150 140 186 176 354 349 545
561 98 109 358 427 420 515 11 15 29 39 41 53 93 116 366 524 474 709 36 61
67 112 70 112 5 0 78 -114 106 -165 6 -11 33 -58 61 -105 150 -258 338 -683
415 -940 31 -105 56 -193 62 -220 3 -14 12 -54 21 -90 33 -140 53 -257 71
-410 8 -70 17 -226 17 -315 1 -112 -11 -363 -17 -373 -2 -4 -7 -34 -10 -67
-17 -163 -81 -410 -163 -633 -49 -132 -170 -386 -228 -477 -19 -30 -35 -56
-35 -59 0 -12 -166 -250 -244 -350 -123 -157 -188 -230 -385 -426 -171 -170
-198 -195 -366 -335 -84 -71 -389 -300 -465 -350 -25 -17 -47 -33 -50 -36 -6
-8 -312 -202 -410 -261 -169 -101 -357 -205 -600 -331 -85 -44 -181 -95 -213
-113 -32 -19 -60 -34 -61 -34 -2 0 -48 -25 -102 -56 -55 -31 -133 -75 -174
-97 -41 -22 -92 -51 -112 -64 -21 -13 -40 -23 -42 -23 -3 0 -29 -14 -58 -32
-29 -17 -75 -43 -103 -58 -27 -15 -90 -50 -138 -79 -49 -28 -90 -51 -92 -51
-2 0 -25 -13 -52 -29 -26 -16 -190 -110 -363 -209 -173 -99 -369 -211 -435
-249 -66 -39 -145 -84 -175 -102 -30 -17 -62 -36 -70 -41 -8 -5 -51 -30 -95
-55 -44 -25 -96 -55 -115 -67 -19 -11 -89 -52 -155 -91 -66 -38 -164 -96 -218
-129 -54 -32 -99 -58 -101 -58 -2 0 -58 -33 -123 -73 -65 -40 -125 -76 -133
-80 -8 -4 -33 -18 -55 -31 -36 -22 -141 -84 -188 -111 -10 -5 -155 -93 -324
-195 -168 -102 -317 -192 -332 -200 -14 -8 -71 -43 -126 -76 -55 -34 -230
-142 -390 -239 -540 -331 -956 -591 -1552 -972 -571 -364 -1595 -1038 -1601
-1055 -2 -4 -7 -8 -12 -8 -5 0 -132 -84 -282 -187 -256 -176 -329 -226 -594
-413 -58 -41 -116 -82 -127 -90 -39 -26 -339 -241 -487 -349 -242 -175 -671
-496 -860 -644 -9 -7 -33 -25 -55 -42 -22 -16 -47 -35 -55 -42 -8 -7 -100 -80
-205 -163 -248 -198 -316 -253 -430 -348 -192 -161 -408 -346 -451 -387 -210
-197 -364 -358 -507 -530 -471 -564 -825 -1233 -1022 -1935 -42 -152 -111
-445 -120 -514 -2 -20 -9 -61 -14 -93 -6 -32 -13 -80 -16 -108 -4 -27 -8 -61
-11 -75 -2 -14 -6 -50 -9 -80 -3 -30 -7 -75 -10 -100 -3 -25 -8 -88 -11 -140
-10 -135 -11 -3686 -2 -3740 36 -214 183 -384 390 -451 94 -30 244 -32 328 -5
95 32 173 79 240 146 75 75 123 159 149 262 18 70 19 150 19 1848 0 976 3
1809 6 1850 6 85 15 179 22 230 2 19 6 55 9 80 23 194 85 473 154 690 175 555
446 1036 846 1500 104 121 349 354 525 500 29 25 72 61 94 80 78 68 222 187
351 291 72 57 132 106 135 110 7 7 396 310 505 392 50 37 101 77 115 87 14 10
104 77 200 149 96 71 186 138 200 149 35 27 499 363 617 446 363 257 866 603
1258 864 105 70 191 130 193 134 2 5 7 8 11 8 5 0 89 53 187 118 390 258 607
398 1054 683 140 89 278 176 305 194 116 75 794 497 1085 675 173 106 326 200
340 209 14 9 30 18 35 21 6 3 54 32 108 65 54 33 106 65 115 70 10 6 77 46
150 90 73 44 145 87 160 96 133 78 514 306 542 324 19 12 184 109 365 215 182
106 342 201 357 211 15 11 30 19 33 19 3 0 38 20 78 43 39 24 149 88 242 142
94 54 203 117 243 141 40 24 74 44 77 44 2 0 36 20 77 43 40 24 179 104 308
177 129 73 330 187 445 253 116 65 235 133 265 150 30 16 154 85 275 152 121
67 263 143 315 170 484 243 1020 576 1449 899 110 82 381 303 401 325 3 3 43
40 90 81 196 173 470 464 651 690 406 506 699 1087 843 1667 29 116 43 179 71
333 6 32 15 97 21 145 3 28 7 61 9 75 25 166 25 741 0 890 -2 14 -7 52 -10 85
-3 33 -8 71 -10 85 -3 14 -7 39 -9 55 -16 98 -37 213 -50 269 -9 35 -17 76
-20 91 -12 67 -83 315 -132 462 -165 497 -405 984 -722 1468 -57 88 -108 162
-113 163 -5 2 -9 8 -9 13 0 6 -19 36 -42 67 -50 66 -53 70 -76 99 -9 11 -24
31 -32 44 -33 49 -232 289 -299 361 -39 42 -95 92 -124 111 -167 110 -381 122
-562 32 -92 -46 -122 -69 -176 -133 -49 -58 -65 -87 -139 -247 -57 -122 -166
-340 -213 -425 -72 -132 -171 -305 -176 -310 -3 -3 -15 -21 -25 -40 -45 -83
-278 -424 -401 -587 -126 -170 -308 -392 -405 -498 -141 -153 -187 -201 -305
-320 -72 -71 -178 -172 -235 -224 -58 -52 -123 -110 -145 -130 -22 -20 -98
-84 -170 -141 -71 -58 -132 -107 -135 -110 -6 -6 -157 -118 -265 -197 -160
-116 -492 -325 -705 -443 -95 -53 -504 -260 -514 -260 -2 0 -33 -13 -68 -29
-421 -194 -987 -377 -1488 -482 -52 -11 -104 -22 -115 -25 -10 -2 -37 -6 -60
-10 -22 -3 -58 -9 -80 -14 -22 -5 -60 -11 -85 -15 -25 -3 -52 -8 -60 -10 -8
-2 -37 -6 -65 -10 -27 -3 -61 -8 -75 -10 -40 -6 -111 -14 -170 -20 -30 -3 -64
-7 -75 -9 -11 -2 -65 -7 -120 -11 -55 -4 -116 -9 -135 -10 -57 -6 -397 -17
-505 -18 -165 0 -509 15 -630 27 -38 4 -88 9 -110 11 -106 9 -181 17 -195 20
-8 2 -40 7 -70 10 -30 3 -77 10 -105 15 -27 5 -70 11 -95 14 -116 15 -383 70
-625 131 -436 110 -772 225 -1190 407 -123 54 -475 229 -605 300 -63 35 -218
126 -260 153 -19 12 -87 55 -150 95 -297 187 -585 404 -904 680 -125 108 -473
449 -586 575 -171 189 -334 386 -456 550 -32 44 -61 82 -64 85 -22 20 -271
394 -352 528 -135 223 -302 541 -432 822 -53 113 -86 163 -150 224 -74 69
-186 127 -276 142 -44 7 -168 13 -173 8z"/>
<path d="M17250 18086 c-3 -3 -20 -8 -38 -11 -247 -43 -445 -303 -437 -572 7
-193 102 -350 291 -478 87 -59 630 -432 669 -460 11 -8 142 -101 290 -206 228
-162 350 -249 400 -287 6 -4 87 -63 180 -132 170 -124 621 -464 695 -523 8 -7
67 -52 130 -102 63 -49 120 -94 127 -100 7 -5 18 -15 25 -20 164 -129 636
-520 703 -581 11 -11 67 -59 125 -109 57 -49 165 -151 240 -225 121 -120 163
-166 279 -302 33 -38 136 -171 161 -208 8 -12 29 -41 46 -64 106 -144 293
-474 379 -671 161 -366 245 -655 320 -1104 2 -13 9 -67 15 -120 5 -53 13 -118
16 -146 3 -27 7 -851 9 -1830 3 -1982 -2 -1836 71 -1975 79 -149 215 -249 387
-284 191 -39 374 17 512 158 72 73 108 131 141 226 18 53 19 114 19 1880 0
1617 -3 1913 -20 2035 -5 33 -15 114 -20 160 -4 38 -16 124 -21 150 -2 11 -6
31 -8 45 -3 14 -8 42 -11 64 -3 21 -7 41 -10 45 -2 4 -6 25 -9 47 -10 85 -137
567 -165 629 -5 11 -26 67 -46 125 -64 181 -123 318 -225 525 -114 232 -195
373 -327 575 -84 127 -285 406 -303 420 -4 3 -33 37 -65 75 -67 81 -220 247
-298 326 -46 47 -93 90 -252 238 -29 27 -203 178 -330 287 -235 201 -650 535
-955 769 -69 53 -132 102 -141 109 -9 8 -52 40 -95 72 -44 32 -81 61 -84 64
-7 8 -508 377 -665 490 -197 142 -435 311 -485 345 -25 17 -148 103 -275 191
-515 360 -618 424 -725 452 -26 7 -215 14 -220 8z"/>
<path d="M15122 15433 c-44 -22 -89 -75 -101 -120 -5 -22 -9 -305 -10 -685 0
-357 0 -661 0 -676 -1 -26 -8 -31 -72 -57 -161 -63 -318 -222 -380 -384 -51
-133 -48 68 -46 -3661 l2 -3485 21 -61 c53 -154 148 -284 268 -368 58 -40 171
-96 195 -96 13 0 12 20 13 -538 0 -233 -4 -427 -8 -431 -5 -5 -31 -17 -59 -26
-142 -52 -283 -182 -359 -332 -78 -154 -75 -96 -75 -1213 l0 -995 23 -85 c26
-100 62 -174 122 -251 74 -97 187 -181 296 -220 37 -14 58 -28 59 -38 0 -9 1
-360 1 -781 0 -831 -2 -802 56 -864 68 -72 188 -75 266 -7 10 9 27 34 38 55
20 39 20 59 20 828 1 648 3 788 14 788 45 0 228 110 289 174 33 35 95 113 95
120 0 3 11 24 25 46 14 22 37 79 51 127 l27 88 1 980 c1 539 -2 1005 -6 1037
-34 255 -226 481 -479 561 -15 5 -17 50 -15 486 l1 482 78 33 c222 97 384 304
414 529 4 29 7 1607 7 3507 l0 3455 -23 80 c-36 128 -108 246 -204 335 -53 48
-162 114 -223 134 l-51 17 -1 693 c0 673 0 694 -20 732 -23 44 -43 65 -89 88
-41 20 -118 20 -161 -1z"/>
<path d="M18778 14189 c-53 -14 -96 -49 -120 -97 l-23 -47 0 -767 0 -767 -45
-17 c-180 -66 -339 -217 -404 -384 -54 -136 -50 -57 -53 -1140 -1 -646 1
-1025 8 -1060 24 -131 109 -289 201 -376 62 -58 145 -111 224 -143 l69 -28 0
-432 c0 -278 -4 -435 -10 -441 -5 -4 -21 -11 -35 -15 -147 -43 -316 -194 -390
-350 -67 -140 -64 -102 -67 -940 -2 -795 -2 -808 41 -925 66 -178 226 -340
401 -405 28 -10 52 -20 55 -22 2 -3 5 -435 5 -961 1 -935 2 -958 21 -991 11
-19 37 -48 58 -65 32 -26 47 -31 99 -33 95 -2 172 50 192 130 4 16 8 454 9
974 l1 946 55 20 c158 58 312 202 384 361 61 133 59 110 60 946 0 758 0 766
-22 843 -62 221 -217 392 -424 468 l-56 21 0 439 c1 343 3 439 13 439 21 0
119 46 177 84 70 44 154 127 202 200 47 70 92 192 103 277 5 35 8 503 8 1039
-1 972 -1 975 -23 1053 -37 129 -99 233 -193 324 -49 46 -151 114 -198 131
-17 7 -44 17 -60 23 l-29 10 0 763 c0 559 -3 773 -11 799 -13 40 -78 104 -113
111 -49 11 -84 13 -110 5z"/>
<path d="M11502 14083 c-44 -22 -89 -75 -101 -120 -6 -23 -10 -334 -10 -773 0
-404 0 -745 -1 -757 0 -13 -5 -23 -12 -23 -7 0 -54 -21 -106 -46 -73 -35 -110
-61 -166 -117 -116 -115 -172 -216 -205 -372 -3 -16 -6 -489 -6 -1050 l0
-1020 28 -79 c53 -151 127 -253 251 -346 53 -40 173 -100 201 -100 18 0 16 32
16 -455 0 -474 2 -435 -16 -435 -51 0 -225 -108 -298 -185 -70 -75 -141 -206
-174 -325 -4 -14 -9 -369 -10 -790 -2 -656 -1 -774 12 -829 39 -165 124 -299
255 -403 43 -34 95 -63 189 -105 l44 -20 0 -949 c0 -645 3 -957 10 -974 31
-73 83 -113 160 -123 53 -7 101 8 143 45 69 61 65 0 67 1056 1 523 4 952 7
951 8 -1 158 68 172 80 7 6 36 28 64 50 134 103 233 278 252 446 4 39 7 394 6
790 -1 803 1 785 -71 930 -43 86 -71 124 -144 195 -64 62 -140 110 -226 145
l-58 24 -1 435 -2 434 57 23 c241 97 410 310 439 554 8 64 8 1910 0 1990 -17
184 -139 381 -302 489 -55 36 -160 86 -181 86 -11 0 -13 151 -13 776 l0 775
-28 46 c-51 82 -160 117 -242 76z"/>
<path d="M7845 6569 c-27 -6 -87 -28 -133 -50 -141 -68 -241 -186 -293 -344
l-23 -70 0 -995 c0 -1100 -3 -1036 64 -1171 73 -144 242 -269 401 -295 105
-17 246 1 338 43 153 71 278 224 315 390 21 93 20 1972 -1 2063 -44 192 -185
345 -383 415 -56 19 -218 27 -285 14z"/>
<path d="M22355 6574 c-213 -33 -401 -203 -457 -414 -19 -72 -20 -108 -20
-1050 -1 -1080 -4 -1032 65 -1170 44 -89 151 -197 239 -240 225 -109 469 -76
651 90 53 48 121 153 149 230 l23 65 2 1005 c2 1088 4 1045 -52 1168 -59 128
-188 244 -329 292 -60 21 -205 34 -271 24z"/>
</g>
</svg>
