<?xml version="1.0" standalone="no"?>
<!DOCTYPE svg PUBLIC "-//W3C//DTD SVG 20010904//EN"
 "http://www.w3.org/TR/2001/REC-SVG-20010904/DTD/svg10.dtd">
<svg version="1.0" xmlns="http://www.w3.org/2000/svg"
 width="1870.000000pt" height="3028.000000pt" viewBox="0 0 1870.000000 3028.000000"
 preserveAspectRatio="xMidYMid meet">
<metadata>
Created by potrace 1.16, written by Peter Selinger 2001-2019
</metadata>
<g transform="translate(0.000000,3028.000000) scale(0.100000,-0.100000)"
fill="#000000" stroke="none">
<path d="M1842 30260 c-101 -27 -165 -64 -249 -143 -140 -133 -392 -456 -598
-767 -960 -1450 -1233 -2973 -773 -4310 444 -1288 1529 -2388 3243 -3288 406
-213 1332 -734 2149 -1209 204 -119 395 -224 423 -235 213 -75 441 -23 598
136 117 118 165 235 165 401 0 166 -48 284 -165 400 -61 62 -108 93 -370 245
-911 528 -1833 1047 -2160 1218 -1168 608 -1946 1238 -2429 1965 -493 743
-639 1521 -451 2402 102 473 291 932 593 1437 l75 126 103 -169 c247 -407 542
-808 880 -1197 164 -189 607 -632 796 -797 1803 -1566 4096 -2311 6463 -2099
1740 156 3392 840 4735 1961 415 346 814 750 1162 1175 233 284 524 698 698
991 41 69 78 126 81 127 3 0 47 -69 97 -152 584 -982 779 -1945 568 -2813
-191 -784 -736 -1523 -1607 -2176 -355 -267 -725 -495 -1259 -776 -510 -269
-1707 -949 -2755 -1566 -3784 -2226 -6788 -4262 -8455 -5728 -864 -760 -1445
-1751 -1685 -2874 -39 -184 -67 -364 -92 -586 -15 -138 -17 -341 -20 -2019 -4
-2063 -8 -1936 59 -2072 43 -87 162 -204 248 -246 285 -138 621 -34 763 235
71 136 67 7 67 1948 0 1035 4 1809 10 1895 44 645 225 1252 535 1796 89 156
254 397 371 544 142 177 413 448 644 645 1518 1292 3861 2900 6930 4757 1339
810 3262 1919 3950 2278 925 483 1601 965 2180 1556 677 691 1092 1443 1264
2289 56 277 70 434 70 795 1 357 -8 463 -60 770 -153 901 -621 1889 -1291
2726 -170 212 -270 311 -359 357 -229 118 -493 78 -675 -103 -53 -53 -75 -85
-115 -170 -109 -231 -237 -487 -310 -617 -578 -1035 -1406 -1931 -2394 -2590
-1926 -1284 -4343 -1599 -6544 -853 -1301 441 -2456 1239 -3356 2320 -230 277
-505 670 -695 995 -89 152 -277 517 -372 722 -80 171 -185 273 -341 330 -95
35 -240 41 -340 13z"/>
<path d="M11475 18089 c-281 -36 -495 -278 -495 -559 0 -141 56 -289 146 -389
26 -29 146 -119 296 -221 1322 -905 2358 -1688 3142 -2373 367 -322 584 -560
805 -887 369 -546 584 -1112 683 -1805 22 -148 22 -173 27 -1990 l6 -1840 22
-65 c60 -175 186 -307 353 -368 88 -32 229 -40 324 -18 202 48 369 209 421
406 22 83 22 3563 0 3813 -97 1101 -512 2103 -1226 2958 -531 636 -2014 1817
-3899 3106 -129 88 -254 170 -278 182 -85 43 -221 64 -327 50z"/>
<path d="M9385 15456 c-5 -3 -22 -7 -37 -10 -39 -9 -88 -54 -109 -101 -17 -38
-19 -82 -19 -731 l0 -691 -42 -12 c-83 -25 -171 -83 -258 -170 -98 -98 -149
-185 -180 -307 -20 -76 -20 -126 -20 -3554 0 -3426 0 -3478 20 -3554 54 -213
215 -396 413 -471 l62 -23 3 -480 2 -480 -37 -12 c-186 -60 -357 -230 -429
-427 l-29 -78 -3 -1025 c-3 -1148 -6 -1101 68 -1248 51 -100 115 -179 193
-238 58 -44 171 -105 217 -117 20 -5 20 -7 20 -786 0 -683 2 -786 15 -819 33
-76 90 -115 175 -116 74 -1 136 33 170 94 l25 45 3 790 2 791 44 13 c77 22
168 83 252 167 67 66 90 97 127 175 81 164 78 118 75 1254 l-3 1000 -27 80
c-70 204 -227 369 -420 440 l-48 18 0 479 0 480 22 6 c13 3 58 23 101 45 136
68 267 210 324 350 56 138 53 -78 53 3648 0 3860 7 3514 -77 3688 -37 78 -59
109 -127 176 -65 65 -100 91 -175 128 -51 26 -99 47 -107 47 -11 0 -14 114
-16 698 l-3 697 -25 45 c-16 28 -40 53 -65 67 -39 21 -109 37 -130 29z"/>
<path d="M12955 14181 c-48 -22 -79 -54 -100 -103 -13 -33 -15 -134 -15 -802
l0 -764 -46 -16 c-186 -63 -347 -227 -418 -425 l-31 -86 -3 -1020 c-3 -1142
-6 -1096 68 -1243 46 -92 124 -187 200 -244 53 -39 167 -100 210 -111 20 -5
20 -10 20 -439 l0 -433 -52 -19 c-183 -63 -348 -235 -420 -436 l-23 -65 -3
-780 c-3 -860 -3 -853 59 -985 81 -172 205 -289 379 -356 l55 -22 5 -963 c6
-1072 0 -998 73 -1053 82 -63 220 -47 275 31 42 61 42 58 42 1040 l0 945 22 6
c50 13 176 83 227 127 106 90 170 185 218 320 l28 80 3 760 c3 868 4 853 -75
1015 -64 132 -168 237 -302 303 -51 26 -99 47 -107 47 -12 0 -14 69 -14 435 0
406 1 436 18 441 9 4 54 24 100 46 156 76 287 227 349 403 l28 80 0 1040 0
1040 -27 80 c-69 203 -221 365 -407 435 l-61 22 0 757 c0 489 -4 769 -10 793
-31 110 -160 168 -265 119z"/>
<path d="M5705 14084 c-45 -23 -66 -45 -86 -89 -18 -38 -19 -84 -19 -808 0
-766 0 -769 -20 -774 -47 -12 -165 -76 -221 -119 -78 -60 -141 -139 -189 -238
-74 -148 -71 -100 -68 -1246 l3 -1025 27 -73 c40 -110 84 -178 173 -267 79
-79 167 -136 258 -165 l37 -12 0 -432 0 -433 -69 -27 c-181 -71 -327 -225
-399 -418 l-27 -73 -3 -787 c-3 -881 -5 -854 68 -1004 70 -145 214 -276 367
-335 l62 -24 3 -966 3 -965 24 -36 c36 -51 81 -78 143 -85 99 -10 181 47 207
142 7 28 11 330 11 976 l0 936 58 22 c183 66 341 235 410 436 l27 80 3 745 c4
794 2 837 -45 960 -55 148 -188 296 -329 367 -44 22 -89 42 -102 45 l-22 6 0
435 0 435 59 22 c173 64 327 222 395 401 47 124 48 152 44 1199 -4 1105 1
1026 -80 1182 -71 138 -202 258 -348 319 l-65 28 -5 773 c-5 696 -7 776 -22
803 -18 34 -62 77 -95 94 -32 16 -133 13 -168 -5z"/>
<path d="M2021 6564 c-178 -48 -333 -194 -394 -373 l-22 -66 -3 -980 c-2 -701
1 -1000 9 -1048 7 -42 27 -101 52 -150 148 -297 523 -404 808 -231 121 73 230
227 258 362 8 36 11 361 11 1035 0 854 -2 991 -15 1042 -51 192 -190 341 -378
400 -92 29 -236 33 -326 9z"/>
<path d="M16495 6561 c-93 -26 -163 -69 -241 -146 -75 -74 -118 -146 -151
-251 -17 -56 -18 -117 -18 -1064 l0 -1005 23 -65 c93 -258 324 -415 582 -396
239 17 429 164 505 390 l25 75 0 1003 c0 869 -2 1012 -15 1063 -49 188 -212
349 -405 400 -75 20 -230 18 -305 -4z"/>
</g>
</svg>
